# Blender 4.0.2
# www.blender.org
mtllib HexagonPillar.mtl
o Cylinder
v 0.000000 -0.000000 -0.575000
v 0.500000 -0.000000 -0.287500
v 0.500000 0.000000 0.287500
v 0.000000 0.000000 0.575000
v -0.500000 0.000000 0.287500
v -0.500000 -0.000000 -0.287500
v 0.500000 0.400000 -0.287500
v 0.000000 0.400000 -0.575000
v 0.500000 0.400000 0.287500
v 0.000000 0.400000 0.575000
v -0.500000 0.400000 0.287500
v -0.500000 0.400000 -0.287500
vn 0.4985 -0.0000 -0.8669
vn 1.0000 -0.0000 -0.0000
vn 0.4985 -0.0000 0.8669
vn -0.4985 -0.0000 0.8669
vn -1.0000 -0.0000 -0.0000
vn -0.4985 -0.0000 -0.8669
vt 0.500000 0.519992
vt 0.500000 0.479992
vt 0.400000 0.479992
vt 0.400000 0.519992
vt 0.300000 0.519992
vt 0.300000 0.479992
vt 0.400000 0.479992
vt 0.400000 0.519992
vt 0.200000 0.519992
vt 0.200000 0.479992
vt 0.700512 0.519992
vt 0.699487 0.480186
vt 0.800000 0.479992
vt 0.800000 0.519992
vt 0.600000 0.519992
vt 0.600000 0.479992
vt 0.700000 0.479992
vt 0.700000 0.519992
vt 0.600000 0.479992
vt 0.600000 0.519992
s 0
f 7/1/1 2/2/1 1/3/1 8/4/1
f 9/5/2 3/6/2 2/7/2 7/8/2
f 10/9/3 4/10/3 3/6/3 9/5/3
f 11/11/4 5/12/4 4/13/4 10/14/4
f 12/15/5 6/16/5 5/17/5 11/18/5
f 8/1/6 1/2/6 6/19/6 12/20/6
